<svg width="20" height="21" viewBox="0 0 20 21" fill="none" xmlns="http://www.w3.org/2000/svg">
<path d="M5.56188 13.8137H17.1329C18.4449 13.8137 19.5153 12.7444 19.5153 11.4336V6.56988C19.5153 6.56556 19.5153 6.55694 19.5153 6.55263C19.5153 6.53969 19.5153 6.53107 19.5153 6.51813C19.5153 6.50951 19.5153 6.50089 19.5109 6.49226C19.5109 6.48364 19.5066 6.4707 19.5066 6.46208C19.5066 6.45346 19.5023 6.44483 19.5023 6.43621C19.498 6.42759 19.498 6.41896 19.4937 6.40603C19.4894 6.3974 19.4894 6.38878 19.485 6.38016C19.4807 6.37153 19.4807 6.36291 19.4764 6.35429C19.4721 6.34566 19.4678 6.33704 19.4635 6.3241C19.4592 6.31548 19.4548 6.30686 19.4505 6.30254C19.4462 6.29392 19.4419 6.2853 19.4376 6.27667C19.4333 6.26805 19.4289 6.26374 19.4246 6.25511C19.4203 6.24649 19.4117 6.23787 19.4074 6.22924C19.403 6.22062 19.3987 6.21631 19.3901 6.20768C19.3858 6.19906 19.3771 6.19475 19.3728 6.18612C19.3685 6.1775 19.3599 6.17319 19.3556 6.16456C19.3513 6.15594 19.3426 6.15163 19.3383 6.14732C19.3297 6.13869 19.3254 6.13438 19.3167 6.12576C19.3081 6.12145 19.3038 6.11282 19.2951 6.10851C19.2865 6.1042 19.2779 6.09558 19.2693 6.09126C19.2606 6.08695 19.2563 6.08264 19.2477 6.07833C19.239 6.07402 19.2304 6.0697 19.2218 6.06108C19.2131 6.05677 19.2045 6.05246 19.1959 6.04815C19.1872 6.04383 19.1786 6.03952 19.17 6.03521C19.1614 6.0309 19.1527 6.02659 19.1441 6.02227C19.1355 6.01796 19.1268 6.01796 19.1182 6.01365C19.1096 6.00934 19.0966 6.00503 19.088 6.00503C19.0793 6.00503 19.0707 6.00072 19.0664 6.00072C19.0535 5.9964 19.0448 5.9964 19.0319 5.9964C19.0276 5.9964 19.0232 5.99209 19.0146 5.99209L4.3491 3.96984V1.92604C4.3491 1.90448 4.3491 1.88292 4.34479 1.86567C4.34479 1.86136 4.34479 1.85705 4.34047 1.84843C4.34047 1.83549 4.33615 1.82256 4.33615 1.80962C4.33184 1.79668 4.33184 1.78806 4.32752 1.77512C4.32752 1.7665 4.32321 1.76219 4.32321 1.75357C4.31889 1.74063 4.31458 1.72769 4.31026 1.71476C4.31026 1.71045 4.30594 1.70182 4.30594 1.69751C4.30163 1.68458 4.29731 1.67595 4.28868 1.66302C4.28436 1.65871 4.28436 1.65008 4.28005 1.64577C4.27573 1.63715 4.27142 1.62852 4.26278 1.6199C4.25847 1.61128 4.25415 1.60696 4.24984 1.59834C4.24552 1.58972 4.2412 1.5854 4.23689 1.57678C4.23257 1.56816 4.22394 1.55953 4.21962 1.55091C4.21531 1.5466 4.21099 1.54229 4.20668 1.53797C4.19805 1.52935 4.18941 1.52073 4.18078 1.5121C4.17647 1.50779 4.17215 1.50348 4.16783 1.49917C4.1592 1.49054 4.15057 1.48192 4.13762 1.4733C4.13331 1.46899 4.12467 1.46467 4.12036 1.46036C4.11173 1.45174 4.1031 1.44743 4.09446 1.4388C4.08152 1.43018 4.06857 1.42156 4.05994 1.41724C4.05562 1.41293 4.0513 1.41293 4.04699 1.40862C4.02972 1.4 4.00814 1.39137 3.99088 1.38275L0.810045 0.0460826C0.512246 -0.0789603 0.171288 0.0590181 0.0461264 0.356534C-0.0790354 0.65405 0.0590743 0.994684 0.356873 1.11973L3.17949 2.30979V4.94863V5.36688V8.57488V11.4422V15.0642C3.17949 16.2715 4.08583 17.2718 5.25545 17.4227C5.04397 17.7763 4.9188 18.1902 4.9188 18.6301C4.9188 19.9279 5.97621 20.98 7.27098 20.98C8.56576 20.98 9.62316 19.9236 9.62316 18.6301C9.62316 18.1989 9.50663 17.7892 9.29947 17.4443H14.539C14.3318 17.7936 14.2153 18.1989 14.2153 18.6301C14.2153 19.9279 15.2727 20.98 16.5675 20.98C17.8623 20.98 18.9197 19.9236 18.9197 18.6301C18.9197 17.3365 17.8623 16.2801 16.5675 16.2801H5.56188C4.88859 16.2801 4.34479 15.7325 4.34479 15.0642V13.486C4.69869 13.693 5.11734 13.8137 5.56188 13.8137ZM8.46218 18.6257C8.46218 19.2811 7.927 19.8115 7.2753 19.8115C6.62359 19.8115 6.08842 19.2768 6.08842 18.6257C6.08842 17.9747 6.62359 17.44 7.2753 17.44C7.927 17.44 8.46218 17.9703 8.46218 18.6257ZM17.7587 18.6257C17.7587 19.2811 17.2235 19.8115 16.5718 19.8115C15.9201 19.8115 15.3849 19.2768 15.3849 18.6257C15.3849 17.9747 15.9201 17.44 16.5718 17.44C17.2235 17.44 17.7587 17.9703 17.7587 18.6257ZM17.1329 12.6496H5.56188C4.88859 12.6496 4.34479 12.1019 4.34479 11.4336V8.56625V5.35825V5.14266L18.35 7.07005V11.4293C18.35 12.1063 17.8018 12.6496 17.1329 12.6496Z" fill="#199BD7"/>
</svg>
