<svg width="21" height="19" viewBox="0 0 21 19" fill="none" xmlns="http://www.w3.org/2000/svg">
<path d="M10.5 19C10.799 19 11.0872 18.8899 11.3118 18.6898C12.1602 17.9354 12.9781 17.2265 13.6997 16.6011L13.7034 16.5979C15.8191 14.7644 17.646 13.181 18.9172 11.6212C20.3381 9.87752 21 8.22423 21 6.41811C21 4.66332 20.4083 3.04441 19.3341 1.8594C18.247 0.660369 16.7554 0 15.1335 0C13.9213 0 12.8111 0.389737 11.834 1.15829C11.3408 1.54624 10.8938 2.02103 10.5 2.57484C10.106 2.02103 9.65918 1.54624 9.16587 1.15829C8.18871 0.389737 7.07856 0 5.86636 0C4.24464 0 2.75285 0.660369 1.66578 1.8594C0.591522 3.04441 0 4.66332 0 6.41811C0 8.22423 0.661697 9.87752 2.08266 11.6211C3.35383 13.181 5.18063 14.7642 7.29597 16.5975C8.01888 17.2239 8.83807 17.9339 9.68834 18.6901C9.9128 18.8899 10.2012 19 10.5 19ZM15.1335 1.251C16.4077 1.251 17.5782 1.76815 18.4298 2.7073C19.294 3.66063 19.77 4.97843 19.77 6.41811C19.77 7.93714 19.2149 9.29568 17.9701 10.823C16.7671 12.2994 14.9776 13.8502 12.9057 15.6459L12.9018 15.6491C12.1775 16.2769 11.3564 16.9886 10.5018 17.7485C9.64204 16.9871 8.81964 16.2743 8.09386 15.6455C6.02209 13.8498 4.23278 12.2994 3.02971 10.823C1.78514 9.29568 1.22999 7.93714 1.22999 6.41811C1.22999 4.97843 1.70599 3.66063 2.57021 2.7073C3.4216 1.76815 4.59231 1.251 5.86636 1.251C6.79978 1.251 7.65678 1.55276 8.41349 2.14779C9.08784 2.6783 9.5576 3.34893 9.83302 3.81818C9.97465 4.05949 10.2239 4.20352 10.5 4.20352C10.7761 4.20352 11.0254 4.05949 11.167 3.81818C11.4422 3.34893 11.912 2.6783 12.5865 2.14779C13.3432 1.55276 14.2002 1.251 15.1335 1.251Z" fill="#199BD7"/>
</svg>
