<svg width="48" height="48" viewBox="0 0 48 48" fill="none" xmlns="http://www.w3.org/2000/svg">
<circle cx="24" cy="24" r="24" fill="#EDF9FF"/>
<path d="M37.085 19.2902L30.4439 16.7179C30.7913 15.7309 30.8969 14.6751 30.752 13.6389C30.6072 12.6026 30.216 11.6163 29.6113 10.7624C29.0066 9.90856 28.206 9.21212 27.2766 8.73148C26.3473 8.25084 25.3162 8 24.27 8C23.2237 8 22.1926 8.25084 21.2633 8.73148C20.3339 9.21212 19.5333 9.90856 18.9286 10.7624C18.3239 11.6163 17.9327 12.6026 17.7879 13.6389C17.643 14.6751 17.7486 15.7309 18.096 16.7179L11.4549 19.2902C11.3208 19.3425 11.2057 19.434 11.1245 19.5529C11.0433 19.6717 10.9999 19.8123 11 19.9561V35.3607C11 35.5048 11.0435 35.6456 11.1249 35.7645C11.2063 35.8834 11.3217 35.975 11.4561 36.0271L24.0115 40.8941C24.0939 40.9259 24.1816 40.9423 24.27 40.9423C24.3574 40.9405 24.4438 40.9225 24.5247 40.8892L24.5284 40.8941L37.085 36.0271C37.2192 35.9748 37.3344 35.8831 37.4155 35.7642C37.4967 35.6453 37.54 35.5047 37.5399 35.3607V19.9561C37.54 19.8123 37.4966 19.6717 37.4154 19.5529C37.3342 19.434 37.2191 19.3425 37.085 19.2902ZM34.8496 19.9561L32.5316 20.8544L28.6903 19.3764C29.1279 18.9737 29.5089 18.5136 29.8229 18.0085L34.8496 19.9561ZM27.2849 20.3669L30.5513 21.6233L28.707 22.3378L25.3238 21.0161C26.0079 20.9056 26.67 20.6864 27.2849 20.3669ZM29.5081 23.5594L31.9077 22.6293V25.6063L31.5064 25.3446C31.366 25.2532 31.1979 25.214 31.0316 25.2338C30.8653 25.2537 30.7112 25.3313 30.5962 25.4532L29.5081 26.6079V23.5594ZM24.27 9.44716C25.2818 9.44716 26.271 9.74721 27.1123 10.3094C27.9536 10.8715 28.6094 11.6706 28.9966 12.6054C29.3838 13.5402 29.4851 14.5689 29.2877 15.5613C29.0903 16.5538 28.6031 17.4654 27.8876 18.1809C27.1721 18.8963 26.2605 19.3836 25.268 19.581C24.2756 19.7784 23.247 19.6771 22.3121 19.2899C21.3773 18.9027 20.5782 18.2469 20.0161 17.4056C19.4539 16.5642 19.1539 15.5751 19.1539 14.5632C19.1554 13.2068 19.6949 11.9064 20.654 10.9473C21.6131 9.98817 22.9135 9.44867 24.27 9.44716ZM19.1253 18.5932L18.169 18.2196L18.7166 18.0073C18.842 18.2103 18.9785 18.4063 19.1253 18.5944V18.5932ZM16.1981 18.9836L26.7341 23.1021L24.27 24.0572L13.6903 19.9561L16.1981 18.9836ZM12.4291 34.8712V20.9998L23.5554 25.3131V39.1845L12.4291 34.8712ZM24.9845 39.1845V25.3131L28.079 24.1127V28.4085C28.0791 28.5516 28.1221 28.6914 28.2026 28.8098C28.283 28.9282 28.3972 29.0196 28.5302 29.0724C28.614 29.1059 28.7034 29.1231 28.7936 29.123C28.891 29.1231 28.9874 29.1032 29.0769 29.0645C29.1663 29.0259 29.247 28.9694 29.3138 28.8985L31.2267 26.868L32.2323 27.5212C32.3401 27.5909 32.4647 27.6303 32.5929 27.6352C32.7212 27.6401 32.8484 27.6103 32.9612 27.5491C33.074 27.4879 33.1682 27.3974 33.2339 27.2871C33.2997 27.1769 33.3345 27.051 33.3348 26.9227V22.0753L36.1108 20.9998V34.8712L24.9845 39.1845Z" fill="#199CD7"/>
<path d="M22.9973 16.666C23.1291 16.7776 23.2968 16.8376 23.4694 16.8351C23.6421 16.8325 23.8079 16.7675 23.9364 16.6522L27.4017 13.5376C27.4751 13.4759 27.5354 13.4001 27.5789 13.3147C27.6224 13.2292 27.6483 13.1359 27.655 13.0402C27.6616 12.9445 27.649 12.8485 27.6178 12.7578C27.5866 12.6672 27.5374 12.5837 27.4733 12.5124C27.4091 12.4411 27.3313 12.3835 27.2444 12.3429C27.1575 12.3024 27.0633 12.2797 26.9675 12.2763C26.8716 12.2729 26.7761 12.2889 26.6866 12.3232C26.597 12.3575 26.5153 12.4094 26.4462 12.476L23.4444 15.1745L22.0774 14.019C21.9326 13.8966 21.7452 13.8368 21.5564 13.8526C21.3675 13.8684 21.1926 13.9586 21.0703 14.1033C20.9479 14.248 20.888 14.4355 20.9039 14.6243C20.9197 14.8132 21.0099 14.988 21.1546 15.1104L22.9973 16.666Z" fill="#199CD7"/>
</svg>
